<?xml version="1.0" encoding="UTF-8" standalone="no"?>
<!DOCTYPE svg PUBLIC "-//W3C//DTD SVG 1.1//EN" "http://www.w3.org/Graphics/SVG/1.1/DTD/svg11.dtd">
<svg width="100%" height="100%" viewBox="0 0 516 642" version="1.1" xmlns="http://www.w3.org/2000/svg" xmlns:xlink="http://www.w3.org/1999/xlink" xml:space="preserve" xmlns:serif="http://www.serif.com/" style="fill-rule:evenodd;clip-rule:evenodd;stroke-linecap:round;stroke-linejoin:round;stroke-miterlimit:1.5;">
    <g transform="matrix(1,0,0,1,-116.805,-34.6122)">
        <g transform="matrix(1,0,0,1,1.26378,1.18906)">
            <path d="M118.875,363.195L118.875,348.225L126.27,329.516L129.713,296.172L209.174,175.484L244.085,149.907L273.577,151.116L329.791,163.808L378.244,158.556L373.019,99.792L404.045,103.893L504.15,36.756L532.732,55.775L498.841,100.361L482.509,160.654L497.028,329.625L514.688,350.394L532.525,403.9L546.444,427.711L604.222,460.841L627.809,489.558L567.221,499.292L546.027,514.009L530.038,532.565L521.468,556.982L521.62,582.881L536.701,608.82L497.29,576.904L480.987,554.022L469.368,557.994L469.385,580.012L466.233,596.15L437.413,596.591L416.685,611.487L418.412,623.16L391.057,671.154L352.908,664.242L305.108,641.088L247.833,624.123L247.17,634.907L190.362,624.325L194.199,567.854L203.685,544.664L206.911,523.155L206.911,498.842L255.179,512.004L281.504,513.903L294.004,507.232L303.885,488.314L286.422,449.535L282.302,398.049L259.421,398.748L237.362,389.971L202.02,388.544L179.933,384L118.875,363.195Z" style="fill:rgb(255,254,175);stroke:black;stroke-width:6.67px;"/>
        </g>
        <g id="dog-paw-svgrepo-com.svg" transform="matrix(0.031156,-0.018284,0.018284,0.031156,406.293,405.11)">
            <g transform="matrix(1,0,0,1,-400,-400)">
                <clipPath id="_clip1">
                    <rect x="0" y="0" width="800" height="800"/>
                </clipPath>
                <g clip-path="url(#_clip1)">
                    <g>
                        <path d="M639.505,603.501C673.151,656.475 689.007,684.6 689.007,713.938C689.007,771.875 645.976,799.967 588.005,799.967C562.452,799.967 545.957,799.934 504.269,778.247C504.269,778.247 477.258,753.529 414.046,756.068C350.245,753.545 323.217,778.558 323.217,778.558C281.529,800.229 265.624,800 240.103,800C182.133,800 139.069,771.94 139.069,713.97C139.069,684.633 154.975,656.541 188.603,603.534C188.603,603.534 252.176,497.963 307.263,448.297C347.067,412.457 405.102,412.588 405.102,412.588L423.006,412.588L423.006,412.572C423.006,412.572 483.581,412.424 520.895,448.297C574.279,499.765 639.505,603.518 639.505,603.501ZM272.422,341.989C333.029,341.989 382.154,265.427 382.154,170.994C382.154,76.562 333.029,0 272.422,0C211.814,0 162.69,76.562 162.69,170.994C162.69,265.427 211.814,341.989 272.422,341.989ZM167.26,507.594C211.929,486.971 222.118,413.85 189.996,344.266C157.874,274.682 95.628,234.976 50.959,255.583C6.29,276.189 -3.882,349.327 28.223,418.911C60.345,488.495 122.591,528.184 167.26,507.594ZM527.546,341.989C588.153,341.989 637.294,265.427 637.294,170.994C637.294,76.562 588.153,0 527.546,0C466.938,0 417.814,76.562 417.814,170.994C417.814,265.427 466.938,341.989 527.546,341.989ZM749.024,255.566C704.339,234.943 642.11,274.649 609.988,344.249C577.866,413.85 588.055,486.971 632.74,507.594C677.426,528.201 739.655,488.495 771.777,418.911C803.899,349.327 793.71,276.189 749.024,255.566Z" style="fill:rgb(57,75,65);fill-rule:nonzero;"/>
                    </g>
                </g>
            </g>
        </g>
        <g id="dog-paw-svgrepo-com.svg1" serif:id="dog-paw-svgrepo-com.svg" transform="matrix(0.0282316,0.0141,-0.0163517,0.0282655,469.319,509.484)">
            <g transform="matrix(1,0,0,1,-400,-400)">
                <clipPath id="_clip2">
                    <rect x="0" y="0" width="800" height="800"/>
                </clipPath>
                <g clip-path="url(#_clip2)">
                    <g>
                        <path d="M639.505,603.501C673.151,656.475 689.007,684.6 689.007,713.938C689.007,771.875 645.976,799.967 588.005,799.967C562.452,799.967 545.957,799.934 504.269,778.247C504.269,778.247 477.258,753.529 414.046,756.068C350.245,753.545 323.217,778.558 323.217,778.558C281.529,800.229 265.624,800 240.103,800C182.133,800 139.069,771.94 139.069,713.97C139.069,684.633 154.975,656.541 188.603,603.534C188.603,603.534 252.176,497.963 307.263,448.297C347.067,412.457 405.102,412.588 405.102,412.588L423.006,412.588L423.006,412.572C423.006,412.572 483.581,412.424 520.895,448.297C574.279,499.765 639.505,603.518 639.505,603.501ZM272.422,341.989C333.029,341.989 382.154,265.427 382.154,170.994C382.154,76.562 333.029,0 272.422,0C211.814,0 162.69,76.562 162.69,170.994C162.69,265.427 211.814,341.989 272.422,341.989ZM167.26,507.594C211.929,486.971 222.118,413.85 189.996,344.266C157.874,274.682 95.628,234.976 50.959,255.583C6.29,276.189 -3.882,349.327 28.223,418.911C60.345,488.495 122.591,528.184 167.26,507.594ZM527.546,341.989C588.153,341.989 637.294,265.427 637.294,170.994C637.294,76.562 588.153,0 527.546,0C466.938,0 417.814,76.562 417.814,170.994C417.814,265.427 466.938,341.989 527.546,341.989ZM749.024,255.566C704.339,234.943 642.11,274.649 609.988,344.249C577.866,413.85 588.055,486.971 632.74,507.594C677.426,528.201 739.655,488.495 771.777,418.911C803.899,349.327 793.71,276.189 749.024,255.566Z" style="fill:rgb(57,75,65);fill-rule:nonzero;"/>
                    </g>
                </g>
            </g>
        </g>
        <g id="dog-paw-svgrepo-com.svg2" serif:id="dog-paw-svgrepo-com.svg" transform="matrix(0.0285042,-0.0164039,0.0164039,0.0285042,375.641,614.606)">
            <g transform="matrix(1,0,0,1,-400,-400)">
                <clipPath id="_clip3">
                    <rect x="0" y="0" width="800" height="800"/>
                </clipPath>
                <g clip-path="url(#_clip3)">
                    <g>
                        <path d="M639.505,603.501C673.151,656.475 689.007,684.6 689.007,713.938C689.007,771.875 645.976,799.967 588.005,799.967C562.452,799.967 545.957,799.934 504.269,778.247C504.269,778.247 477.258,753.529 414.046,756.068C350.245,753.545 323.217,778.558 323.217,778.558C281.529,800.229 265.624,800 240.103,800C182.133,800 139.069,771.94 139.069,713.97C139.069,684.633 154.975,656.541 188.603,603.534C188.603,603.534 252.176,497.963 307.263,448.297C347.067,412.457 405.102,412.588 405.102,412.588L423.006,412.588L423.006,412.572C423.006,412.572 483.581,412.424 520.895,448.297C574.279,499.765 639.505,603.518 639.505,603.501ZM272.422,341.989C333.029,341.989 382.154,265.427 382.154,170.994C382.154,76.562 333.029,0 272.422,0C211.814,0 162.69,76.562 162.69,170.994C162.69,265.427 211.814,341.989 272.422,341.989ZM167.26,507.594C211.929,486.971 222.118,413.85 189.996,344.266C157.874,274.682 95.628,234.976 50.959,255.583C6.29,276.189 -3.882,349.327 28.223,418.911C60.345,488.495 122.591,528.184 167.26,507.594ZM527.546,341.989C588.153,341.989 637.294,265.427 637.294,170.994C637.294,76.562 588.153,0 527.546,0C466.938,0 417.814,76.562 417.814,170.994C417.814,265.427 466.938,341.989 527.546,341.989ZM749.024,255.566C704.339,234.943 642.11,274.649 609.988,344.249C577.866,413.85 588.055,486.971 632.74,507.594C677.426,528.201 739.655,488.495 771.777,418.911C803.899,349.327 793.71,276.189 749.024,255.566Z" style="fill:rgb(57,75,65);fill-rule:nonzero;"/>
                    </g>
                </g>
            </g>
        </g>
        <g id="dog-paw-svgrepo-com.svg3" serif:id="dog-paw-svgrepo-com.svg" transform="matrix(0.0265139,0.0150579,-0.0150579,0.0265139,406.91,220.34)">
            <g transform="matrix(1,0,0,1,-400,-400)">
                <clipPath id="_clip4">
                    <rect x="0" y="0" width="800" height="800"/>
                </clipPath>
                <g clip-path="url(#_clip4)">
                    <g>
                        <path d="M639.505,603.501C673.151,656.475 689.007,684.6 689.007,713.938C689.007,771.875 645.976,799.967 588.005,799.967C562.452,799.967 545.957,799.934 504.269,778.247C504.269,778.247 477.258,753.529 414.046,756.068C350.245,753.545 323.217,778.558 323.217,778.558C281.529,800.229 265.624,800 240.103,800C182.133,800 139.069,771.94 139.069,713.97C139.069,684.633 154.975,656.541 188.603,603.534C188.603,603.534 252.176,497.963 307.263,448.297C347.067,412.457 405.102,412.588 405.102,412.588L423.006,412.588L423.006,412.572C423.006,412.572 483.581,412.424 520.895,448.297C574.279,499.765 639.505,603.518 639.505,603.501ZM272.422,341.989C333.029,341.989 382.154,265.427 382.154,170.994C382.154,76.562 333.029,0 272.422,0C211.814,0 162.69,76.562 162.69,170.994C162.69,265.427 211.814,341.989 272.422,341.989ZM167.26,507.594C211.929,486.971 222.118,413.85 189.996,344.266C157.874,274.682 95.628,234.976 50.959,255.583C6.29,276.189 -3.882,349.327 28.223,418.911C60.345,488.495 122.591,528.184 167.26,507.594ZM527.546,341.989C588.153,341.989 637.294,265.427 637.294,170.994C637.294,76.562 588.153,0 527.546,0C466.938,0 417.814,76.562 417.814,170.994C417.814,265.427 466.938,341.989 527.546,341.989ZM749.024,255.566C704.339,234.943 642.11,274.649 609.988,344.249C577.866,413.85 588.055,486.971 632.74,507.594C677.426,528.201 739.655,488.495 771.777,418.911C803.899,349.327 793.71,276.189 749.024,255.566Z" style="fill:rgb(57,75,65);fill-rule:nonzero;"/>
                    </g>
                </g>
            </g>
        </g>
        <g id="dog-paw-svgrepo-com.svg4" serif:id="dog-paw-svgrepo-com.svg" transform="matrix(0.0381564,0.00858033,-0.00858033,0.0381564,261.793,242.436)">
            <g transform="matrix(1,0,0,1,-400,-400)">
                <clipPath id="_clip5">
                    <rect x="0" y="0" width="800" height="800"/>
                </clipPath>
                <g clip-path="url(#_clip5)">
                    <g>
                        <path d="M639.505,603.501C673.151,656.475 689.007,684.6 689.007,713.938C689.007,771.875 645.976,799.967 588.005,799.967C562.452,799.967 545.957,799.934 504.269,778.247C504.269,778.247 477.258,753.529 414.046,756.068C350.245,753.545 323.217,778.558 323.217,778.558C281.529,800.229 265.624,800 240.103,800C182.133,800 139.069,771.94 139.069,713.97C139.069,684.633 154.975,656.541 188.603,603.534C188.603,603.534 252.176,497.963 307.263,448.297C347.067,412.457 405.102,412.588 405.102,412.588L423.006,412.588L423.006,412.572C423.006,412.572 483.581,412.424 520.895,448.297C574.279,499.765 639.505,603.518 639.505,603.501ZM272.422,341.989C333.029,341.989 382.154,265.427 382.154,170.994C382.154,76.562 333.029,0 272.422,0C211.814,0 162.69,76.562 162.69,170.994C162.69,265.427 211.814,341.989 272.422,341.989ZM167.26,507.594C211.929,486.971 222.118,413.85 189.996,344.266C157.874,274.682 95.628,234.976 50.959,255.583C6.29,276.189 -3.882,349.327 28.223,418.911C60.345,488.495 122.591,528.184 167.26,507.594ZM527.546,341.989C588.153,341.989 637.294,265.427 637.294,170.994C637.294,76.562 588.153,0 527.546,0C466.938,0 417.814,76.562 417.814,170.994C417.814,265.427 466.938,341.989 527.546,341.989ZM749.024,255.566C704.339,234.943 642.11,274.649 609.988,344.249C577.866,413.85 588.055,486.971 632.74,507.594C677.426,528.201 739.655,488.495 771.777,418.911C803.899,349.327 793.71,276.189 749.024,255.566Z" style="fill:rgb(57,75,65);fill-rule:nonzero;"/>
                    </g>
                </g>
            </g>
        </g>
        <g id="dog-paw-svgrepo-com.svg5" serif:id="dog-paw-svgrepo-com.svg" transform="matrix(0.0381564,0.00858033,-0.00858033,0.0381564,255.299,198.312)">
            <g transform="matrix(1,0,0,1,-400,-400)">
                <clipPath id="_clip6">
                    <rect x="0" y="0" width="800" height="800"/>
                </clipPath>
                <g clip-path="url(#_clip6)">
                    <g>
                        <path d="M639.505,603.501C673.151,656.475 689.007,684.6 689.007,713.938C689.007,771.875 645.976,799.967 588.005,799.967C562.452,799.967 545.957,799.934 504.269,778.247C504.269,778.247 477.258,753.529 414.046,756.068C350.245,753.545 323.217,778.558 323.217,778.558C281.529,800.229 265.624,800 240.103,800C182.133,800 139.069,771.94 139.069,713.97C139.069,684.633 154.975,656.541 188.603,603.534C188.603,603.534 252.176,497.963 307.263,448.297C347.067,412.457 405.102,412.588 405.102,412.588L423.006,412.588L423.006,412.572C423.006,412.572 483.581,412.424 520.895,448.297C574.279,499.765 639.505,603.518 639.505,603.501ZM272.422,341.989C333.029,341.989 382.154,265.427 382.154,170.994C382.154,76.562 333.029,0 272.422,0C211.814,0 162.69,76.562 162.69,170.994C162.69,265.427 211.814,341.989 272.422,341.989ZM167.26,507.594C211.929,486.971 222.118,413.85 189.996,344.266C157.874,274.682 95.628,234.976 50.959,255.583C6.29,276.189 -3.882,349.327 28.223,418.911C60.345,488.495 122.591,528.184 167.26,507.594ZM527.546,341.989C588.153,341.989 637.294,265.427 637.294,170.994C637.294,76.562 588.153,0 527.546,0C466.938,0 417.814,76.562 417.814,170.994C417.814,265.427 466.938,341.989 527.546,341.989ZM749.024,255.566C704.339,234.943 642.11,274.649 609.988,344.249C577.866,413.85 588.055,486.971 632.74,507.594C677.426,528.201 739.655,488.495 771.777,418.911C803.899,349.327 793.71,276.189 749.024,255.566Z" style="fill:rgb(57,75,65);fill-rule:nonzero;"/>
                    </g>
                </g>
            </g>
        </g>
        <g id="dog-paw-svgrepo-com.svg6" serif:id="dog-paw-svgrepo-com.svg" transform="matrix(0.0381564,0.00858033,-0.00858033,0.0381564,236.604,279.825)">
            <g transform="matrix(1,0,0,1,-400,-400)">
                <clipPath id="_clip7">
                    <rect x="0" y="0" width="800" height="800"/>
                </clipPath>
                <g clip-path="url(#_clip7)">
                    <g>
                        <path d="M639.505,603.501C673.151,656.475 689.007,684.6 689.007,713.938C689.007,771.875 645.976,799.967 588.005,799.967C562.452,799.967 545.957,799.934 504.269,778.247C504.269,778.247 477.258,753.529 414.046,756.068C350.245,753.545 323.217,778.558 323.217,778.558C281.529,800.229 265.624,800 240.103,800C182.133,800 139.069,771.94 139.069,713.97C139.069,684.633 154.975,656.541 188.603,603.534C188.603,603.534 252.176,497.963 307.263,448.297C347.067,412.457 405.102,412.588 405.102,412.588L423.006,412.588L423.006,412.572C423.006,412.572 483.581,412.424 520.895,448.297C574.279,499.765 639.505,603.518 639.505,603.501ZM272.422,341.989C333.029,341.989 382.154,265.427 382.154,170.994C382.154,76.562 333.029,0 272.422,0C211.814,0 162.69,76.562 162.69,170.994C162.69,265.427 211.814,341.989 272.422,341.989ZM167.26,507.594C211.929,486.971 222.118,413.85 189.996,344.266C157.874,274.682 95.628,234.976 50.959,255.583C6.29,276.189 -3.882,349.327 28.223,418.911C60.345,488.495 122.591,528.184 167.26,507.594ZM527.546,341.989C588.153,341.989 637.294,265.427 637.294,170.994C637.294,76.562 588.153,0 527.546,0C466.938,0 417.814,76.562 417.814,170.994C417.814,265.427 466.938,341.989 527.546,341.989ZM749.024,255.566C704.339,234.943 642.11,274.649 609.988,344.249C577.866,413.85 588.055,486.971 632.74,507.594C677.426,528.201 739.655,488.495 771.777,418.911C803.899,349.327 793.71,276.189 749.024,255.566Z" style="fill:rgb(57,75,65);fill-rule:nonzero;"/>
                    </g>
                </g>
            </g>
        </g>
        <g id="dog-paw-svgrepo-com.svg7" serif:id="dog-paw-svgrepo-com.svg" transform="matrix(0.0344083,-0.0110031,0.0110031,0.0344083,402.702,370.441)">
            <g transform="matrix(1,0,0,1,-400,-400)">
                <clipPath id="_clip8">
                    <rect x="0" y="0" width="800" height="800"/>
                </clipPath>
                <g clip-path="url(#_clip8)">
                    <g>
                        <path d="M639.505,603.501C673.151,656.475 689.007,684.6 689.007,713.938C689.007,771.875 645.976,799.967 588.005,799.967C562.452,799.967 545.957,799.934 504.269,778.247C504.269,778.247 477.258,753.529 414.046,756.068C350.245,753.545 323.217,778.558 323.217,778.558C281.529,800.229 265.624,800 240.103,800C182.133,800 139.069,771.94 139.069,713.97C139.069,684.633 154.975,656.541 188.603,603.534C188.603,603.534 252.176,497.963 307.263,448.297C347.067,412.457 405.102,412.588 405.102,412.588L423.006,412.588L423.006,412.572C423.006,412.572 483.581,412.424 520.895,448.297C574.279,499.765 639.505,603.518 639.505,603.501ZM272.422,341.989C333.029,341.989 382.154,265.427 382.154,170.994C382.154,76.562 333.029,0 272.422,0C211.814,0 162.69,76.562 162.69,170.994C162.69,265.427 211.814,341.989 272.422,341.989ZM167.26,507.594C211.929,486.971 222.118,413.85 189.996,344.266C157.874,274.682 95.628,234.976 50.959,255.583C6.29,276.189 -3.882,349.327 28.223,418.911C60.345,488.495 122.591,528.184 167.26,507.594ZM527.546,341.989C588.153,341.989 637.294,265.427 637.294,170.994C637.294,76.562 588.153,0 527.546,0C466.938,0 417.814,76.562 417.814,170.994C417.814,265.427 466.938,341.989 527.546,341.989ZM749.024,255.566C704.339,234.943 642.11,274.649 609.988,344.249C577.866,413.85 588.055,486.971 632.74,507.594C677.426,528.201 739.655,488.495 771.777,418.911C803.899,349.327 793.71,276.189 749.024,255.566Z" style="fill:rgb(57,75,65);fill-rule:nonzero;"/>
                    </g>
                </g>
            </g>
        </g>
        <g id="dog-paw-svgrepo-com.svg8" serif:id="dog-paw-svgrepo-com.svg" transform="matrix(0.0239563,0.0199578,-0.0221472,0.0244834,494.968,490.307)">
            <g transform="matrix(1,0,0,1,-400,-400)">
                <clipPath id="_clip9">
                    <rect x="0" y="0" width="800" height="800"/>
                </clipPath>
                <g clip-path="url(#_clip9)">
                    <g>
                        <path d="M639.505,603.501C673.151,656.475 689.007,684.6 689.007,713.938C689.007,771.875 645.976,799.967 588.005,799.967C562.452,799.967 545.957,799.934 504.269,778.247C504.269,778.247 477.258,753.529 414.046,756.068C350.245,753.545 323.217,778.558 323.217,778.558C281.529,800.229 265.624,800 240.103,800C182.133,800 139.069,771.94 139.069,713.97C139.069,684.633 154.975,656.541 188.603,603.534C188.603,603.534 252.176,497.963 307.263,448.297C347.067,412.457 405.102,412.588 405.102,412.588L423.006,412.588L423.006,412.572C423.006,412.572 483.581,412.424 520.895,448.297C574.279,499.765 639.505,603.518 639.505,603.501ZM272.422,341.989C333.029,341.989 382.154,265.427 382.154,170.994C382.154,76.562 333.029,0 272.422,0C211.814,0 162.69,76.562 162.69,170.994C162.69,265.427 211.814,341.989 272.422,341.989ZM167.26,507.594C211.929,486.971 222.118,413.85 189.996,344.266C157.874,274.682 95.628,234.976 50.959,255.583C6.29,276.189 -3.882,349.327 28.223,418.911C60.345,488.495 122.591,528.184 167.26,507.594ZM527.546,341.989C588.153,341.989 637.294,265.427 637.294,170.994C637.294,76.562 588.153,0 527.546,0C466.938,0 417.814,76.562 417.814,170.994C417.814,265.427 466.938,341.989 527.546,341.989ZM749.024,255.566C704.339,234.943 642.11,274.649 609.988,344.249C577.866,413.85 588.055,486.971 632.74,507.594C677.426,528.201 739.655,488.495 771.777,418.911C803.899,349.327 793.71,276.189 749.024,255.566Z" style="fill:rgb(57,75,65);fill-rule:nonzero;"/>
                    </g>
                </g>
            </g>
        </g>
        <g id="dog-paw-svgrepo-com.svg9" serif:id="dog-paw-svgrepo-com.svg" transform="matrix(0.0314086,-0.0097506,0.0097506,0.0314086,377.14,571.132)">
            <g transform="matrix(1,0,0,1,-400,-400)">
                <clipPath id="_clip10">
                    <rect x="0" y="0" width="800" height="800"/>
                </clipPath>
                <g clip-path="url(#_clip10)">
                    <g>
                        <path d="M639.505,603.501C673.151,656.475 689.007,684.6 689.007,713.938C689.007,771.875 645.976,799.967 588.005,799.967C562.452,799.967 545.957,799.934 504.269,778.247C504.269,778.247 477.258,753.529 414.046,756.068C350.245,753.545 323.217,778.558 323.217,778.558C281.529,800.229 265.624,800 240.103,800C182.133,800 139.069,771.94 139.069,713.97C139.069,684.633 154.975,656.541 188.603,603.534C188.603,603.534 252.176,497.963 307.263,448.297C347.067,412.457 405.102,412.588 405.102,412.588L423.006,412.588L423.006,412.572C423.006,412.572 483.581,412.424 520.895,448.297C574.279,499.765 639.505,603.518 639.505,603.501ZM272.422,341.989C333.029,341.989 382.154,265.427 382.154,170.994C382.154,76.562 333.029,0 272.422,0C211.814,0 162.69,76.562 162.69,170.994C162.69,265.427 211.814,341.989 272.422,341.989ZM167.26,507.594C211.929,486.971 222.118,413.85 189.996,344.266C157.874,274.682 95.628,234.976 50.959,255.583C6.29,276.189 -3.882,349.327 28.223,418.911C60.345,488.495 122.591,528.184 167.26,507.594ZM527.546,341.989C588.153,341.989 637.294,265.427 637.294,170.994C637.294,76.562 588.153,0 527.546,0C466.938,0 417.814,76.562 417.814,170.994C417.814,265.427 466.938,341.989 527.546,341.989ZM749.024,255.566C704.339,234.943 642.11,274.649 609.988,344.249C577.866,413.85 588.055,486.971 632.74,507.594C677.426,528.201 739.655,488.495 771.777,418.911C803.899,349.327 793.71,276.189 749.024,255.566Z" style="fill:rgb(57,75,65);fill-rule:nonzero;"/>
                    </g>
                </g>
            </g>
        </g>
        <g id="dog-paw-svgrepo-com.svg10" serif:id="dog-paw-svgrepo-com.svg" transform="matrix(0.0225643,0.020508,-0.020508,0.0225643,430.737,203.083)">
            <g transform="matrix(1,0,0,1,-400,-400)">
                <clipPath id="_clip11">
                    <rect x="0" y="0" width="800" height="800"/>
                </clipPath>
                <g clip-path="url(#_clip11)">
                    <g>
                        <path d="M639.505,603.501C673.151,656.475 689.007,684.6 689.007,713.938C689.007,771.875 645.976,799.967 588.005,799.967C562.452,799.967 545.957,799.934 504.269,778.247C504.269,778.247 477.258,753.529 414.046,756.068C350.245,753.545 323.217,778.558 323.217,778.558C281.529,800.229 265.624,800 240.103,800C182.133,800 139.069,771.94 139.069,713.97C139.069,684.633 154.975,656.541 188.603,603.534C188.603,603.534 252.176,497.963 307.263,448.297C347.067,412.457 405.102,412.588 405.102,412.588L423.006,412.588L423.006,412.572C423.006,412.572 483.581,412.424 520.895,448.297C574.279,499.765 639.505,603.518 639.505,603.501ZM272.422,341.989C333.029,341.989 382.154,265.427 382.154,170.994C382.154,76.562 333.029,0 272.422,0C211.814,0 162.69,76.562 162.69,170.994C162.69,265.427 211.814,341.989 272.422,341.989ZM167.26,507.594C211.929,486.971 222.118,413.85 189.996,344.266C157.874,274.682 95.628,234.976 50.959,255.583C6.29,276.189 -3.882,349.327 28.223,418.911C60.345,488.495 122.591,528.184 167.26,507.594ZM527.546,341.989C588.153,341.989 637.294,265.427 637.294,170.994C637.294,76.562 588.153,0 527.546,0C466.938,0 417.814,76.562 417.814,170.994C417.814,265.427 466.938,341.989 527.546,341.989ZM749.024,255.566C704.339,234.943 642.11,274.649 609.988,344.249C577.866,413.85 588.055,486.971 632.74,507.594C677.426,528.201 739.655,488.495 771.777,418.911C803.899,349.327 793.71,276.189 749.024,255.566Z" style="fill:rgb(57,75,65);fill-rule:nonzero;"/>
                    </g>
                </g>
            </g>
        </g>
        <g id="dog-paw-svgrepo-com.svg11" serif:id="dog-paw-svgrepo-com.svg" transform="matrix(0.026055,-0.0250227,0.0250227,0.026055,378.975,344.154)">
            <g transform="matrix(1,0,0,1,-400,-400)">
                <clipPath id="_clip12">
                    <rect x="0" y="0" width="800" height="800"/>
                </clipPath>
                <g clip-path="url(#_clip12)">
                    <g>
                        <path d="M639.505,603.501C673.151,656.475 689.007,684.6 689.007,713.938C689.007,771.875 645.976,799.967 588.005,799.967C562.452,799.967 545.957,799.934 504.269,778.247C504.269,778.247 477.258,753.529 414.046,756.068C350.245,753.545 323.217,778.558 323.217,778.558C281.529,800.229 265.624,800 240.103,800C182.133,800 139.069,771.94 139.069,713.97C139.069,684.633 154.975,656.541 188.603,603.534C188.603,603.534 252.176,497.963 307.263,448.297C347.067,412.457 405.102,412.588 405.102,412.588L423.006,412.588L423.006,412.572C423.006,412.572 483.581,412.424 520.895,448.297C574.279,499.765 639.505,603.518 639.505,603.501ZM272.422,341.989C333.029,341.989 382.154,265.427 382.154,170.994C382.154,76.562 333.029,0 272.422,0C211.814,0 162.69,76.562 162.69,170.994C162.69,265.427 211.814,341.989 272.422,341.989ZM167.26,507.594C211.929,486.971 222.118,413.85 189.996,344.266C157.874,274.682 95.628,234.976 50.959,255.583C6.29,276.189 -3.882,349.327 28.223,418.911C60.345,488.495 122.591,528.184 167.26,507.594ZM527.546,341.989C588.153,341.989 637.294,265.427 637.294,170.994C637.294,76.562 588.153,0 527.546,0C466.938,0 417.814,76.562 417.814,170.994C417.814,265.427 466.938,341.989 527.546,341.989ZM749.024,255.566C704.339,234.943 642.11,274.649 609.988,344.249C577.866,413.85 588.055,486.971 632.74,507.594C677.426,528.201 739.655,488.495 771.777,418.911C803.899,349.327 793.71,276.189 749.024,255.566Z" style="fill:rgb(57,75,65);fill-rule:nonzero;"/>
                    </g>
                </g>
            </g>
        </g>
        <g id="dog-paw-svgrepo-com.svg12" serif:id="dog-paw-svgrepo-com.svg" transform="matrix(0.0312583,0.00714663,-0.00934455,0.0307681,505.072,460.378)">
            <g transform="matrix(1,0,0,1,-400,-400)">
                <clipPath id="_clip13">
                    <rect x="0" y="0" width="800" height="800"/>
                </clipPath>
                <g clip-path="url(#_clip13)">
                    <g>
                        <path d="M639.505,603.501C673.151,656.475 689.007,684.6 689.007,713.938C689.007,771.875 645.976,799.967 588.005,799.967C562.452,799.967 545.957,799.934 504.269,778.247C504.269,778.247 477.258,753.529 414.046,756.068C350.245,753.545 323.217,778.558 323.217,778.558C281.529,800.229 265.624,800 240.103,800C182.133,800 139.069,771.94 139.069,713.97C139.069,684.633 154.975,656.541 188.603,603.534C188.603,603.534 252.176,497.963 307.263,448.297C347.067,412.457 405.102,412.588 405.102,412.588L423.006,412.588L423.006,412.572C423.006,412.572 483.581,412.424 520.895,448.297C574.279,499.765 639.505,603.518 639.505,603.501ZM272.422,341.989C333.029,341.989 382.154,265.427 382.154,170.994C382.154,76.562 333.029,0 272.422,0C211.814,0 162.69,76.562 162.69,170.994C162.69,265.427 211.814,341.989 272.422,341.989ZM167.26,507.594C211.929,486.971 222.118,413.85 189.996,344.266C157.874,274.682 95.628,234.976 50.959,255.583C6.29,276.189 -3.882,349.327 28.223,418.911C60.345,488.495 122.591,528.184 167.26,507.594ZM527.546,341.989C588.153,341.989 637.294,265.427 637.294,170.994C637.294,76.562 588.153,0 527.546,0C466.938,0 417.814,76.562 417.814,170.994C417.814,265.427 466.938,341.989 527.546,341.989ZM749.024,255.566C704.339,234.943 642.11,274.649 609.988,344.249C577.866,413.85 588.055,486.971 632.74,507.594C677.426,528.201 739.655,488.495 771.777,418.911C803.899,349.327 793.71,276.189 749.024,255.566Z" style="fill:rgb(57,75,65);fill-rule:nonzero;"/>
                    </g>
                </g>
            </g>
        </g>
        <g id="dog-paw-svgrepo-com.svg13" serif:id="dog-paw-svgrepo-com.svg" transform="matrix(0.0239126,-0.0225779,0.0225779,0.0239126,342.08,554.668)">
            <g transform="matrix(1,0,0,1,-400,-400)">
                <clipPath id="_clip14">
                    <rect x="0" y="0" width="800" height="800"/>
                </clipPath>
                <g clip-path="url(#_clip14)">
                    <g>
                        <path d="M639.505,603.501C673.151,656.475 689.007,684.6 689.007,713.938C689.007,771.875 645.976,799.967 588.005,799.967C562.452,799.967 545.957,799.934 504.269,778.247C504.269,778.247 477.258,753.529 414.046,756.068C350.245,753.545 323.217,778.558 323.217,778.558C281.529,800.229 265.624,800 240.103,800C182.133,800 139.069,771.94 139.069,713.97C139.069,684.633 154.975,656.541 188.603,603.534C188.603,603.534 252.176,497.963 307.263,448.297C347.067,412.457 405.102,412.588 405.102,412.588L423.006,412.588L423.006,412.572C423.006,412.572 483.581,412.424 520.895,448.297C574.279,499.765 639.505,603.518 639.505,603.501ZM272.422,341.989C333.029,341.989 382.154,265.427 382.154,170.994C382.154,76.562 333.029,0 272.422,0C211.814,0 162.69,76.562 162.69,170.994C162.69,265.427 211.814,341.989 272.422,341.989ZM167.26,507.594C211.929,486.971 222.118,413.85 189.996,344.266C157.874,274.682 95.628,234.976 50.959,255.583C6.29,276.189 -3.882,349.327 28.223,418.911C60.345,488.495 122.591,528.184 167.26,507.594ZM527.546,341.989C588.153,341.989 637.294,265.427 637.294,170.994C637.294,76.562 588.153,0 527.546,0C466.938,0 417.814,76.562 417.814,170.994C417.814,265.427 466.938,341.989 527.546,341.989ZM749.024,255.566C704.339,234.943 642.11,274.649 609.988,344.249C577.866,413.85 588.055,486.971 632.74,507.594C677.426,528.201 739.655,488.495 771.777,418.911C803.899,349.327 793.71,276.189 749.024,255.566Z" style="fill:rgb(57,75,65);fill-rule:nonzero;"/>
                    </g>
                </g>
            </g>
        </g>
        <g id="dog-paw-svgrepo-com.svg14" serif:id="dog-paw-svgrepo-com.svg" transform="matrix(0.0292869,0.00848526,-0.00848526,0.0292869,439.938,174.646)">
            <g transform="matrix(1,0,0,1,-400,-400)">
                <clipPath id="_clip15">
                    <rect x="0" y="0" width="800" height="800"/>
                </clipPath>
                <g clip-path="url(#_clip15)">
                    <g>
                        <path d="M639.505,603.501C673.151,656.475 689.007,684.6 689.007,713.938C689.007,771.875 645.976,799.967 588.005,799.967C562.452,799.967 545.957,799.934 504.269,778.247C504.269,778.247 477.258,753.529 414.046,756.068C350.245,753.545 323.217,778.558 323.217,778.558C281.529,800.229 265.624,800 240.103,800C182.133,800 139.069,771.94 139.069,713.97C139.069,684.633 154.975,656.541 188.603,603.534C188.603,603.534 252.176,497.963 307.263,448.297C347.067,412.457 405.102,412.588 405.102,412.588L423.006,412.588L423.006,412.572C423.006,412.572 483.581,412.424 520.895,448.297C574.279,499.765 639.505,603.518 639.505,603.501ZM272.422,341.989C333.029,341.989 382.154,265.427 382.154,170.994C382.154,76.562 333.029,0 272.422,0C211.814,0 162.69,76.562 162.69,170.994C162.69,265.427 211.814,341.989 272.422,341.989ZM167.26,507.594C211.929,486.971 222.118,413.85 189.996,344.266C157.874,274.682 95.628,234.976 50.959,255.583C6.29,276.189 -3.882,349.327 28.223,418.911C60.345,488.495 122.591,528.184 167.26,507.594ZM527.546,341.989C588.153,341.989 637.294,265.427 637.294,170.994C637.294,76.562 588.153,0 527.546,0C466.938,0 417.814,76.562 417.814,170.994C417.814,265.427 466.938,341.989 527.546,341.989ZM749.024,255.566C704.339,234.943 642.11,274.649 609.988,344.249C577.866,413.85 588.055,486.971 632.74,507.594C677.426,528.201 739.655,488.495 771.777,418.911C803.899,349.327 793.71,276.189 749.024,255.566Z" style="fill:rgb(57,75,65);fill-rule:nonzero;"/>
                    </g>
                </g>
            </g>
        </g>
    </g>
</svg>
