<svg viewBox="0 0 1217 1861" xmlns="http://www.w3.org/2000/svg" xml:space="preserve" fill-rule="evenodd"
     clip-rule="evenodd" stroke-linecap="round" stroke-linejoin="round" stroke-miterlimit="1.5"><path d="M2099.61 536.554s-139.21 2.829-222.37 11.168c-148.54 14.894-181.59 25.301-218.5 52.023-14.84 10.744-21.81 22.693-29.94 50.432-6.35 21.681-23.93 47.36-32.25 54.671-8.87 7.785-15.87 10.041-32.51 7.812-16.65-2.228-40.36-26.083-51.11-17.264-48.04 39.425-180.64 156.82-256.59 253.407-77.23 98.217-204.75 252.557-206.26 324.997-1.19 56.91 65.24 194.5 102.57 275.79 32.56 70.91 87.24 168.48 112.07 203.38 5.6 7.87 34.29-2.76 42.31 2.57 8.02 5.34 1.8 59.48 37.21 123.53 37.69 68.17 98.04 144.6 129.69 163.18 6.49 3.8-30.67-7.3-36.03-4.07-9.92 6-13.25 14.62-16.8 20.35-21.23 34.23-70.61 130.86-93.87 199.16-22.36 65.64-35.62 141.4-43.29 203.47-6.91 55.91-7.31 112.83-2.72 168.98 5.66 69.18 19.11 171.89 36.66 246.08 16.2 68.46 37.9 135.75 68.65 199.02 31.16 64.12 78.6 134.31 117.38 185.49 33.34 43.99 71.09 85.91 112.18 122.77 51.48 46.16 141.33 119.48 194.95 156.74 39.22 27.25 87.94 47.71 126.74 66.81 34.79 17.11 71.21 34.11 106.05 47.74 33.68 13.17 103.02 34.02 103.02 34.02s93.49 17.93 114.18 22.8c25.18 5.93 241.28 14.71 388.57-16.98 121.37-26.12 269.72-94.24 327.29-127.35 80.79-46.46 161.73-115.28 185.34-134.24 35.86-28.8 81.59-82.56 97.6-102.72 3.93-4.94 5.33-16.76-.61-14.64-28.93 10.32-355.79 135.77-644.69 132.55-225.47-2.51-377.75-46.35-365.92-47.95 21.47-2.89 157.14-144.7 244.62-274.19 89.18-132 143.62-273.14 164.45-333.11 16.33-46.97 33.46-105.02 42.44-150.96 8.47-43.28 16.6-139.02 16.6-139.02s-2.89-154.74-7.63-223.2c-4.34-62.73-20.77-187.52-20.77-187.52s-6.52-51.44-7.47-60.97c-.55-5.45 8.02-8.26 12.53-7.04 6.77 1.84 25.05 12.39 25.05 12.39l65.9-76.19s58.78-69.22 75.58-103.81c15.26-31.39 17.12-83.04 28.79-100.36 8.58-12.74 39.38-7.73 39.38-7.73l56.14-79.51 63.02-125.51 70.91-178.55s35.2-77.5 23.2-112.66c-17.86-52.31-126.54-197.89-126.54-197.89s-61.43-89.904-97.43-129.146c-54.48-59.385-200.63-208.06-229.43-227.157-9.69-6.426-30.34 19.182-30.34 19.182s-37.33 2.459-53.76-6.814c-16.44-9.272-36.16-55.252-36.16-55.252s-16.68-51.266-34.03-62.811c-43.47-28.916-170.17-43.067-258.09-51.852-51.74-5.171-175.96-4.046-175.96-4.046Z" fill="#d86900" stroke="#000" stroke-width="52.24" transform="matrix(.53646 0 0 .57585 -548.774 -294.38)"/>
    <path d="M1911.81 3179.38c77.74 71.3 126.82 109.24 178.94 141.49 55.5 34.34 136.14 75.53 212.97 83.54" fill="none"
          stroke="#000" stroke-width="76.37" stroke-linecap="butt"
          transform="matrix(.53646 0 0 .57585 -548.774 -294.38)"/>
    <path d="M1487.17 2188.56s-35.29 221.08-19.2 375.22c14.33 137.18 62.51 279.24 91.15 350.66 61.18 152.53 151.02 303.34 267.67 429.95 217.2 235.76 545.91 364.51 545.91 364.51"
          fill="none" stroke="#000" stroke-width="76.33" transform="matrix(.53578 0 0 .57435 -547.781 -291.101)"/>
    <path d="m730.15 1818.893 39.503 16.754-4.617 10.887-39.504-16.754z"/>
    <path d="M1722.04 1602.69s-144.34 217.18-180.65 324.89c-36.35 107.81-58.62 230.63-57.9 345.85.73 115.22 26.18 237.92 62.24 345.48 35.72 106.54 88.56 208.55 154.12 299.82 72.7 101.21 187.69 261.95 258.21 293.09 4.48 1.98 137.49-57 302.95-263.87 224.75-281 263.1-571.74 282.15-665.93 17.93-88.62 27.27-188.19 31.4-269.41 3.69-72.57 2.05-157.69-6.63-217.9-7.15-49.62-31.58-109.26-45.26-141.15-7.94-18.51-36.85-50.24-36.85-50.24s-71.78 132.23-108.56 171.03c-26.11 27.53-39.51 38.73-62.5 55.93-33.73 25.23-74.45 51.89-105.79 60.61-64.86 18.04-155.57 13.58-219.26-4.69-62.1-17.82-114.93-61.71-162.92-104.96-48.02-43.27-104.75-178.55-104.75-178.55Z"
          fill="#cec7c1" stroke="#000" stroke-width="76.18" stroke-linecap="butt"
          transform="matrix(.53646 0 0 .57585 -548.774 -294.38)"/>
    <path d="M1633.14 1752.68c-.9 234.88 31.79 528.26 448.75 565.64 144.69 12.97 401.8-89.5 494.66-390.36" fill="none"
          stroke="#000" stroke-width="76.18" transform="matrix(.53646 0 0 .57585 -548.774 -294.38)"/>
    <path d="M1535.47 701.339s-178.65 391.471-207.24 515.951c-38.35 166.96-30.7 544.71-30.7 544.71M1581.16 714.303s-13.7 391.997 27.71 552.017c59.96 231.74 179 465.26 179 465.26"
          fill="none" stroke="#000" stroke-width="76.18" stroke-linecap="butt"
          transform="matrix(.53646 0 0 .57585 -548.774 -294.38)"/>
    <path d="M1529.42 704.494s-163.96 350.676-201.19 512.796c-38.35 166.96-23.74 550.28-23.74 550.28M1577.78 716.862s-18.69 389.828 22.72 549.848c59.97 231.74 184.17 451.84 184.17 451.84"
          fill="none" stroke="#000" stroke-width="76.18" stroke-linecap="butt"
          transform="matrix(-.53646 0 0 .57585 1705.146 -294.38)"/>
    <path d="M1916.77 1431.52s121.87-33.86 182.02-32.84c60.15 1.02 178.87 38.96 178.87 38.96s-123.81 234.99-183.96 233.97c-60.15-1.02-176.93-240.09-176.93-240.09Z"
          fill="#543e2f" stroke="#000" stroke-width="76.18" transform="matrix(.53646 0 0 .57585 -548.774 -294.38)"/>
    <path d="M2099.15 1916.26c-138.94 2.18-205.44-79.96-226.98-98.49-28.27-24.34-34.91-44.12-25.27-46.46 56.88-13.8 139.73-40.53 202.7-86.71 15.93-11.69 27.94-14.72 46.13-15.07 19.39-.37 30.96 5.48 42 13.6 58.54 43.12 167.46 80.76 216.16 91.62 5.3 1.18 3.8 18.08-9.7 32.54-16.91 18.12-89.03 106.51-245.04 108.97Z"
          fill="#fff" stroke="#000" stroke-width="76.18" transform="matrix(.53646 0 0 .57585 -548.774 -294.38)"/>
    <path d="M2520.83 1649.49s52.11 81.33 73.49 127.57c20.7 44.77 40.41 95.61 48.24 115.48 13.66 34.71 49.77 134.79 49.77 134.79M1446.22 2035.31l57.36 19.64"
          fill="none" stroke="#000" stroke-width="76.18" stroke-linecap="butt"
          transform="matrix(.53646 0 0 .57585 -548.774 -294.38)"/></svg>