<?xml version="1.0" encoding="UTF-8" standalone="no"?>
<!DOCTYPE svg PUBLIC "-//W3C//DTD SVG 1.1//EN" "http://www.w3.org/Graphics/SVG/1.1/DTD/svg11.dtd">
<svg width="100%" height="100%" viewBox="0 0 263 543" version="1.1" xmlns="http://www.w3.org/2000/svg" xmlns:xlink="http://www.w3.org/1999/xlink" xml:space="preserve" xmlns:serif="http://www.serif.com/" style="fill-rule:evenodd;clip-rule:evenodd;stroke-linecap:round;stroke-linejoin:round;stroke-miterlimit:1.5;">
    <g transform="matrix(1,0,0,1,-1156,-329)">
        <path d="M1177.05,804.466C1163.88,808.858 1157.82,812.271 1157,798.266C1156.11,783.177 1181.31,785.342 1188.36,766.537C1195.66,747.065 1189.05,747.508 1186.17,743.197C1184.7,740.984 1173.36,712.656 1177.42,704.539C1179.29,700.795 1184.09,702.426 1186.17,689.951C1186.98,685.108 1196.19,651.879 1190.18,629.046C1173.49,565.611 1190.39,557.693 1207.06,530.411C1190.95,543.339 1187.78,550.255 1173.85,535.152C1167.7,528.487 1170.02,516.183 1177.05,510.155C1189.83,499.207 1198.6,481.011 1199.97,478.176C1182.92,452.453 1187.03,450.739 1183.62,420.075C1180.91,395.738 1192.15,398.122 1188.23,387.655C1188.09,387.299 1186.8,385.769 1186.12,383.091C1185.95,382.401 1185.76,379.264 1184.94,376.95C1184.15,374.709 1182.71,373.278 1182.71,373.278C1176.29,383.766 1164.3,385.065 1161.69,382.54C1158.89,379.835 1160.95,371.569 1161.41,370.876C1175.24,350.129 1184.82,344.632 1194.19,341.744C1200.77,339.716 1206.98,337.442 1215.68,338.685C1224.55,339.952 1233.55,340.258 1250.27,340.059C1262.16,339.918 1275.22,339.159 1286.42,338.876C1291.55,338.747 1296.15,339.956 1300.31,339.172C1305.65,338.167 1309.45,334.681 1312.53,332.832C1320.19,328.232 1343.29,330.815 1346.42,330.641C1351.97,332.053 1359.21,335.821 1361.22,337.673C1369.39,345.219 1376.22,351.702 1380.34,359.507C1382.02,362.695 1378.79,367.335 1377,367.209C1374.86,367.058 1372.02,364.489 1367.37,362.796C1359.76,373.828 1360.73,374.694 1349.56,382.146C1340.98,387.862 1339.94,423.029 1341.17,427.004C1344,436.196 1347.29,441.192 1348.84,445.931C1352.47,457.003 1351.94,460.376 1352.11,467.485C1352.49,483.681 1352.57,483.851 1361.59,497.391C1373.16,514.741 1371.88,513.852 1389.24,536.17C1415.79,570.303 1401.15,584.077 1406.45,626.493C1407.9,638.109 1401.27,641.715 1398.51,646.806C1392.98,657.026 1388.3,663.804 1392.58,687.38C1394.65,698.761 1393.68,697.73 1400.66,707.026C1408.86,717.961 1406.47,736.781 1403.43,746.277C1400.65,754.947 1391.18,763.15 1389.02,772.874C1387.41,780.132 1391.66,788.378 1396.24,797.537C1397.83,800.715 1409.16,803.769 1414.1,811.749C1421,822.893 1420.37,838.728 1407.13,834.481C1402.28,832.923 1394.93,829.864 1393.26,837.105C1391.88,843.103 1397.52,853.261 1395.54,858.735C1392.57,866.962 1383.99,867.858 1382.74,867.923C1373.91,868.388 1363.92,877.545 1349.92,863.547C1346.72,860.346 1347.02,847.698 1346.97,835.935C1346.94,828.091 1345.49,820.73 1347.37,816.501C1346.33,816 1349.02,808.396 1351.77,796.44C1353.32,789.73 1351.25,781.1 1354.2,772.252C1356.76,764.575 1348.03,765.307 1332.27,768.515C1325.01,769.993 1318.25,773.478 1306.93,771.488C1302.74,770.751 1308.09,779.65 1296.02,783.075C1292.97,783.942 1290.26,781.898 1285.25,782.635C1281.75,789.27 1275.08,785.844 1271.74,779.53C1269.41,775.137 1269.68,768.768 1269.66,765.84C1257.78,764.179 1256.93,767.274 1246.71,760.702C1236.98,754.445 1224.68,753.514 1224.68,753.514C1222.26,759.054 1223.58,766.342 1222.85,772.333C1221.86,780.539 1219.32,787.394 1219.05,793.893C1218.44,808.478 1219.62,822.553 1206.96,838.383C1203.46,842.756 1203.51,857.032 1178.51,850.782C1164.46,847.269 1156.53,846.462 1157.73,833.277C1158.18,828.295 1187.1,806.522 1173.04,803.007" style="stroke:black;stroke-width:1px;"/>
    </g>
</svg>
