<?xml version="1.0" encoding="UTF-8" standalone="no"?>
<!DOCTYPE svg PUBLIC "-//W3C//DTD SVG 1.1//EN" "http://www.w3.org/Graphics/SVG/1.1/DTD/svg11.dtd">
<svg width="100%" height="100%" viewBox="0 0 325 608" version="1.1" xmlns="http://www.w3.org/2000/svg" xmlns:xlink="http://www.w3.org/1999/xlink" xml:space="preserve" xmlns:serif="http://www.serif.com/" style="fill-rule:evenodd;clip-rule:evenodd;stroke-linecap:round;stroke-linejoin:round;stroke-miterlimit:1.5;">
    <g transform="matrix(1,0,0,1,-874,-293)">
        <path d="M895.686,803.109C881.518,799.061 903.496,787.852 903.672,787.501C912.741,769.363 896.137,760.266 893.44,748.843C891.865,748.121 885.574,745.235 881.893,730.512C878.938,718.692 882.47,718.016 877.537,706.919C868.15,685.798 883.437,646.436 904.035,636.137C908.159,634.075 910.85,637.389 914.924,629.24C924.18,610.729 912.871,607.938 922.184,589.312C927.216,579.248 908.003,573.761 934.162,512.723C956.133,461.457 956.742,456.586 957.393,451.379C958.027,446.308 975.728,420.683 959.983,411.552C959.752,409.355 958.716,399.519 961.043,383.955C948.375,372.557 961.276,365.373 961.749,355.915C962.639,338.117 965.001,338.696 974.816,323.972C979.488,316.964 977.777,316.282 983.165,309.816C990.055,301.548 995.701,309.04 1002.02,308.408C1013.39,307.271 1018.37,309.723 1026,310.613C1027.91,310.836 1034.13,308.648 1041.01,308.227C1045.18,307.971 1057.52,307.833 1063.73,311.7C1078.31,297.109 1084.15,287.213 1082.26,298.564C1080.91,306.67 1082.61,311.544 1084.43,315.809C1085.76,318.934 1083.15,321.561 1083.46,325.064C1083.71,328.038 1088.5,335.661 1093.1,350.215C1095.22,356.905 1098.04,355.338 1098.88,365.637C1100.21,381.972 1100.54,383.276 1098.4,399.712C1097.15,409.379 1091.44,419.982 1088.22,431.194C1083.94,446.133 1085.67,456.644 1095.08,470.759C1108.19,490.419 1117.15,514.205 1120.87,534.836C1123.06,546.991 1121.96,556.824 1122.76,567.374C1124.67,592.443 1125.18,610.825 1125.07,614.709C1124.89,620.853 1121.01,620.998 1122.17,625.182C1125.46,637.033 1130.7,654.609 1132.51,674.697C1134.02,691.453 1133.16,708.9 1134.16,726.815C1135.87,757.254 1142.93,785.471 1149.7,802.641C1155.75,817.982 1142.81,813.581 1182.08,846.304C1199.77,861.046 1199.29,869.001 1197.69,868.318C1197.24,868.125 1193.13,864.454 1188.15,861.557C1188.56,862.197 1195.82,875.397 1192.62,877.635C1191.59,878.351 1188.95,875.333 1185.38,873.82C1183.57,876.85 1181.55,884.148 1174.86,873.876C1173.76,874.207 1170.75,876.696 1166.47,877.205C1160.02,877.973 1150.51,876.312 1138.88,872.438C1131.72,870.051 1132.32,845.959 1124.24,839.496L1122.91,846.952C1117.72,838.174 1119.4,830.614 1119.13,822.85C1118.92,816.9 1116.96,810.781 1113.48,804.198C1104.47,787.194 1113.96,781.097 1110.21,766.085C1102.89,736.83 1099.37,729.264 1097.96,726.242C1084.47,747.764 1078.72,751.792 1076.45,753.38C1075.41,754.111 1077.13,755.739 1065.56,764.996C1063.5,766.644 1058.11,780.118 1071.73,783.145C1093.31,787.941 1093.37,792.343 1092.79,814.361C1092.46,826.674 1073.69,820.918 1062.66,819.08C1059.12,818.49 1049.46,800.036 1036.99,794.617C1035.47,780.92 1029.27,788.586 1016.56,793.671C1008.56,796.87 1010.55,799.159 1013,807.439C1007.99,814.876 999.461,814.01 994.312,814.328C979.707,815.228 975.031,809.992 972.676,810.41C972.117,823.524 968.844,822.841 967.92,835.777C966.831,851.021 973.64,849.743 974.529,865.157C969.462,861.216 969.795,861.065 966.468,855.741C975.663,883.328 964.235,890.185 961.749,891.676C950.809,898.241 951.057,898.592 938.155,900.025C902.679,903.967 901.006,876.093 917.465,872.801C921.645,871.965 949.58,830.85 935.261,813.907C936.114,805.368 936.109,805.661 937.429,797.301C939.664,783.147 936.099,783.63 935.475,781.023C930.21,794.942 939.182,797.56 929.807,809.28C912.085,831.431 893.752,802.996 893.508,802.02" style="stroke:black;stroke-width:1px;"/>
    </g>
</svg>
