<?xml version="1.0" encoding="UTF-8" standalone="no"?>
<!DOCTYPE svg PUBLIC "-//W3C//DTD SVG 1.1//EN" "http://www.w3.org/Graphics/SVG/1.1/DTD/svg11.dtd">
<svg width="100%" height="100%" viewBox="0 0 232 539" version="1.1" xmlns="http://www.w3.org/2000/svg" xmlns:xlink="http://www.w3.org/1999/xlink" xml:space="preserve" xmlns:serif="http://www.serif.com/" style="fill-rule:evenodd;clip-rule:evenodd;stroke-linecap:round;stroke-linejoin:round;stroke-miterlimit:1.5;">
    <g transform="matrix(1,0,0,1,-1408,-333)">
        <path d="M1441.62,817.319C1429.31,821.77 1418.93,829.68 1410,811.82C1405.1,802.021 1423.02,784.451 1436.04,782.28C1436.59,782.189 1442.63,776.228 1440.71,773.341C1432.54,761.088 1430.79,761.793 1429.44,746.911C1428.78,739.67 1412.36,682.338 1444.43,668.94C1479.39,654.33 1446.52,543.735 1474.17,525.301C1477.71,522.937 1471.23,485.978 1464.27,466.322C1460.18,454.789 1459.04,452.026 1455.78,443.212C1450.86,429.883 1444.82,425.617 1447.32,411.872C1447.53,410.679 1445.76,410.698 1447.32,396.713C1448.48,386.215 1451.15,339.763 1465.77,340.307C1471.98,340.539 1486.87,360.954 1497.37,380.526C1502.94,390.889 1515.8,391.783 1519.33,391.661C1530.86,391.264 1538.58,388.429 1541.6,377.51C1544.09,368.517 1549.17,361.234 1555.54,349.01C1557.54,345.172 1559.52,333.826 1572.75,334.357C1574.79,334.439 1574.55,340.829 1577.13,341.133C1580.65,341.547 1590.97,359.881 1591.49,364.216C1593.16,378.275 1595.35,384.667 1594.36,395.816C1593.42,406.47 1595.89,416.433 1594.81,425.84C1594.37,429.703 1589.07,435.258 1588.74,438.565C1586.88,457.067 1587.78,465.027 1586.07,469.785C1567.63,521.133 1597.47,535.857 1597.78,552.968C1598.09,570.053 1605.23,590.954 1603.57,609.761C1602.3,624.161 1596.42,635.291 1596.27,646.989C1596.08,661.459 1600.62,672.272 1601.64,677.542C1603.23,685.763 1608.14,694.652 1614.06,706.488C1625.42,729.208 1606.63,747.937 1604.72,750.113C1600.51,754.929 1592.29,760.871 1592.14,769.912C1592.08,773.559 1600.31,778.496 1604.74,778.773C1607.98,778.976 1642.87,784.829 1639.23,806.659C1638.73,809.668 1634.59,813.753 1633.98,814.263C1627.2,819.914 1593.83,810.947 1593.6,811.439C1592.47,813.799 1597.15,822.121 1602.01,828.921C1603.21,830.603 1613.18,847.613 1610.95,860.793C1607.57,880.711 1562.44,860.698 1561.59,859.627C1536.79,828.628 1562.78,792.21 1536.71,795.107C1535.3,795.263 1531.52,798.655 1525.61,801.862C1520.78,804.485 1514.64,807.366 1506.3,805.063C1505.37,808.751 1508.1,812.01 1505.72,817.657C1502.49,825.346 1500.8,823.993 1497.15,834.519C1495.12,840.359 1506.62,856.269 1483.83,868.929C1482.58,869.627 1471.37,868.41 1462.91,870.828C1456.11,872.771 1429.61,867.887 1445.84,844.695C1463.02,820.155 1466.89,809.336 1455.65,812.194C1452.39,813.025 1446.48,815.564 1441.62,817.319Z" style="stroke:black;stroke-width:1px;"/>
    </g>
</svg>
