<?xml version="1.0" encoding="UTF-8" standalone="no"?>
<!DOCTYPE svg PUBLIC "-//W3C//DTD SVG 1.1//EN" "http://www.w3.org/Graphics/SVG/1.1/DTD/svg11.dtd">
<svg width="100%" height="100%" viewBox="0 0 279 734" version="1.1" xmlns="http://www.w3.org/2000/svg" xmlns:xlink="http://www.w3.org/1999/xlink" xml:space="preserve" xmlns:serif="http://www.serif.com/" style="fill-rule:evenodd;clip-rule:evenodd;stroke-linecap:round;stroke-linejoin:round;stroke-miterlimit:1.5;">
    <g transform="matrix(1,0,0,1,-40,-171)">
        <g transform="matrix(1,0,0,1,-29.296,-0.0846506)">
            <path d="M129.406,817.046C126.924,818.397 128.023,817.511 125.321,818.862C118.789,822.128 91.025,807.311 114.88,783.456C122.723,775.614 121.423,768.567 119.59,761.389C117.019,751.327 111.306,742.206 109.887,740.787C104.358,735.258 95.164,739.937 89.915,729.439C87.95,725.51 75.053,715.703 71.775,692.553C70.095,680.69 69.348,665.105 77.205,645.463C77.973,643.543 86.92,634.753 93.079,625.347C97.645,618.373 104.633,619.524 104.461,613.999C104.239,606.869 110.85,602.868 112.963,601.8C109.597,576.148 118.764,574.071 108.979,556.948C101.939,544.628 92.924,457.717 105.802,437.112C115.936,420.897 94.034,400.831 132.129,345.419C134.18,342.436 135.999,331.574 135.859,320.387C135.769,313.215 134.126,306.244 133.685,300.032C133.312,294.786 135.35,292.457 134.209,289.481C131.15,281.502 136.827,269.969 130.943,258.273C129.626,255.655 127.707,270.411 121.295,270.001C125.054,248.71 118.775,247.327 119.441,240.305C104.305,222.331 102.039,203.385 111.059,189.34C125.386,167.029 169.526,171.958 174.236,174.806C179.769,178.152 177.978,187.045 188.19,185.188C197.312,183.53 208.862,183.202 213.562,183.171C220.364,183.126 223.869,179.168 236.986,181.553C257.746,185.327 272.705,178.68 290.699,193.752C297.314,199.292 308.308,202.748 314.248,218.471C319.863,233.331 324.417,227.101 332.539,241.078C333.983,243.564 337.687,248.125 341.056,251.075C343.371,253.102 345.513,253.274 346.71,255.885C347.57,257.762 345.942,260.732 345.974,262.825C346.045,267.475 338.963,273.962 336.849,280.962C330.467,302.101 309.198,282.31 308.706,251.911C308.654,248.687 308.762,244.217 305.273,243.945C299.133,243.468 287.532,251.124 285.149,266.614C284.142,273.156 286.923,281.175 285.312,284.774C282.629,290.771 282.052,291.639 283.74,306.836C284.086,309.952 279.915,322.258 279.508,325.131C276.935,343.285 274.075,359.461 283.74,369.931C285.955,372.33 299.4,408.595 301.798,444.576C304.177,480.291 310.979,533.941 296.904,571.473C293.761,579.854 297.157,579.435 303.316,585.815C304.875,598.626 309.696,594.254 315.969,594.624C320.215,594.873 333.214,614.706 339.222,635.707C344.163,652.982 342.782,671.562 341.651,676.245C329.452,726.785 303.912,722.794 298.266,756.674C297.761,759.703 296.952,766.731 301.496,772.111C306.611,778.166 317.454,782.722 322.939,788.418C333.313,799.191 338.645,806.179 322.117,821.054C317.14,825.533 301.281,817.379 304.152,826.418C308.95,841.522 327.391,852.114 337.899,880.517C345.072,899.907 335.515,889.573 334.126,890.128C332.653,890.717 327.095,891.334 318.017,904.047C303.759,906.286 305.85,899.202 291.752,903.173C284.928,896.447 277.586,904.445 273.579,901.695C267.89,897.791 267.227,888.534 266.887,879.73C266.782,877.034 266.317,874.481 264.057,870.956C259.575,863.965 264.14,842.988 261.876,846.878C256.992,855.271 255.866,841.478 255.6,838.819C254.834,831.159 257.374,802.623 248.014,780.946C237.95,797.761 235.088,797.968 210.574,798.493C184.881,799.044 192.43,784.087 172.439,788.306C177.939,824.14 178.284,824.823 177.976,824.309C177.841,824.085 177.109,822.865 175.252,822.493C170.742,821.591 174.937,833.638 174.258,833.153C179.479,866.801 177.892,874.779 177.068,875.603C159.86,892.811 152.908,889.2 149.787,889.894C146.807,890.556 135.344,893.807 122.566,885.385C119.002,885.656 119.583,879.779 117.044,879.616C88.898,877.807 119.022,852.046 124.126,834.182C124.643,832.371 130.412,819.059 129.406,817.046Z" style="stroke:black;stroke-width:1px;"/>
        </g>
    </g>
</svg>
