<?xml version="1.0" encoding="UTF-8" standalone="no"?>
<!DOCTYPE svg PUBLIC "-//W3C//DTD SVG 1.1//EN" "http://www.w3.org/Graphics/SVG/1.1/DTD/svg11.dtd">
<svg width="100%" height="100%" viewBox="0 0 352 638" version="1.1" xmlns="http://www.w3.org/2000/svg" xmlns:xlink="http://www.w3.org/1999/xlink" xml:space="preserve" xmlns:serif="http://www.serif.com/" style="fill-rule:evenodd;clip-rule:evenodd;stroke-linecap:round;stroke-linejoin:round;stroke-miterlimit:1.5;">
    <g transform="matrix(1,0,0,1,-591,-257)">
        <path d="M621.096,852.152C588.928,871.453 584.948,840.082 601.677,806.624C627.591,754.796 607.995,748.886 632.48,691.752C652.878,644.157 623.273,601.515 641.465,528.75C647.842,503.241 631.967,505.366 639.881,478.983C647.586,453.302 654.228,451.666 652.374,433.13C651.008,419.465 658.529,414.133 644.673,410.669C638.025,409.007 629.927,402.882 630.873,382.577C631.437,370.474 639.958,355.778 640.823,327.242C641.492,305.158 665.8,283.89 669.06,281.037C670.79,279.523 711.481,257.559 724.931,258.244C745.815,259.309 759.288,265.635 773.268,277.549C779.788,283.106 789.654,285.28 794.893,293.967C795.668,288.699 799.178,287.203 801.57,287.478C823.878,290.044 811.823,346.22 816.357,370.234C820.78,393.66 825.259,394.151 811.56,416.377C839.994,460.529 824.337,448.992 840.213,498.885C849.997,529.636 842.328,547.352 850.031,578.164C857.19,606.801 812.828,690.544 844.24,706.25C875.21,721.735 845.376,799.147 914.847,813.042C935.63,817.198 958.855,843.677 923.19,849.621C916.564,850.725 916.894,854.144 893.67,848.338C888.183,846.966 884.838,861.486 878.268,861.814C852.353,863.11 851.395,854.487 851.315,856.68C851.193,859.993 855.153,871.52 854.156,879.692C853.492,885.136 847.748,887.901 847.667,890.108C844.419,893.416 826.102,898.943 794.2,882.992C781.518,876.651 798.854,847.359 769.124,852.314C737.645,857.561 749.857,846.154 714.473,848.353C711.746,848.523 705.479,844.969 700.424,850.025C688.624,861.824 702.03,880.894 683.368,882.148C667.084,883.242 650.328,884.548 644.042,880.45C638.058,876.55 642.522,871.038 642.786,864.986C643.245,854.447 642.579,841.818 633.729,849.408C637.105,850.234 621.096,852.152 621.096,852.152Z" style="stroke:black;stroke-width:1px;"/>
    </g>
</svg>
