<?xml version="1.0" encoding="UTF-8" standalone="no"?>
<!DOCTYPE svg PUBLIC "-//W3C//DTD SVG 1.1//EN" "http://www.w3.org/Graphics/SVG/1.1/DTD/svg11.dtd">
<svg width="100%" height="100%" viewBox="0 0 1920 787" version="1.1" xmlns="http://www.w3.org/2000/svg" xmlns:xlink="http://www.w3.org/1999/xlink" xml:space="preserve" xmlns:serif="http://www.serif.com/" style="fill-rule:evenodd;clip-rule:evenodd;stroke-linecap:round;stroke-linejoin:round;stroke-miterlimit:1.5;">
    <g id="Artboard1" transform="matrix(1,0,0,0.728417,0,0)" fill="rgb(30,42,30)">
        <rect x="0" y="0" width="1920" height="1080" style="fill:none;"/>
        <g transform="matrix(1,0,0,1.37284,0,-194.83)">
            <path d="M1654.59,860.555C1653.57,860.072 1653.01,863.538 1640.6,858.221C1618.93,848.936 1648.83,832.408 1641.88,790.762C1641.13,786.232 1617.98,750.621 1628.39,724.587C1632.89,713.353 1621.72,709.424 1628.25,676.778C1633.95,648.274 1628.57,649.072 1627.31,614.926C1627.18,611.363 1634.71,571.194 1632.47,556.518C1631.55,550.486 1635.54,541.256 1635.74,536.115C1635.94,530.998 1647.06,522.061 1647.82,513.569C1648.67,504.038 1649.47,469.426 1646.7,455.081C1645.43,448.532 1644.65,446.419 1640.61,452.468C1639.58,454.022 1637.36,461.653 1629.69,465.135C1625.49,467.045 1621.48,455.674 1617.13,441.392C1613.25,428.681 1597.14,415.764 1636.96,399.163C1650.75,393.417 1657.18,391.972 1678.56,389.597C1698.48,387.384 1696.87,387.656 1717.7,386.966C1724.29,386.748 1749.29,390.1 1762.92,395.011C1778.5,400.626 1802.13,406.546 1820.05,420.271C1825.05,424.1 1839.38,422.259 1825.85,447.826C1825.5,448.487 1818.72,464.179 1814.13,465.975C1809.54,467.771 1801.1,465.516 1798.33,458.602C1797.26,455.925 1784.28,460.076 1783.55,466.954C1781.75,483.877 1782.46,483.787 1775.52,499.399C1767.32,517.861 1780.81,517.4 1782.91,523.171C1787.55,535.947 1788.59,535.516 1790.3,549.191C1793.84,577.538 1791.92,577.99 1802.5,604.444C1804.47,609.349 1816.77,636.546 1820.45,664.448C1823.91,690.66 1817.9,696.558 1837.52,724.587C1853.24,747.039 1854.06,770.477 1854.22,774.7C1854.9,792.302 1857.24,798.717 1855.9,815.486C1855.26,823.428 1849.65,834.604 1846.81,832.074C1843.76,829.35 1843.31,825.168 1839.88,820.753C1836.62,829.279 1838.17,830.486 1839.66,839.388C1839.92,840.982 1839.91,846.748 1828.16,850.406C1825.03,851.379 1820.41,850.313 1813.91,849.646C1811.73,849.423 1786.86,853.667 1780.02,844.087C1772.34,833.341 1771.07,853.696 1764.81,858.051C1756.7,863.683 1711.68,866.886 1706.44,855.712C1705.05,852.746 1711.13,847.896 1708.8,843.896C1707.9,842.357 1703.41,843.213 1697.72,846.059C1694.94,847.449 1691.77,845.701 1691.19,846.282C1688.36,849.11 1690.86,848.657 1691.13,856.075C1686.48,862.862 1662.1,861.372 1654.59,860.555Z" />
        </g>
        <g transform="matrix(1,0,0,1.37284,0,-194.83)">
            <path d="M1441.62,817.319C1429.31,821.77 1418.93,829.68 1410,811.82C1405.1,802.021 1423.02,784.451 1436.04,782.28C1436.59,782.189 1442.63,776.228 1440.71,773.341C1432.54,761.088 1430.79,761.793 1429.44,746.911C1428.78,739.67 1412.36,682.338 1444.43,668.94C1479.39,654.33 1446.52,543.735 1474.17,525.301C1477.71,522.937 1471.23,485.978 1464.27,466.322C1460.18,454.789 1459.04,452.026 1455.78,443.212C1450.86,429.883 1444.82,425.617 1447.32,411.872C1447.53,410.679 1445.76,410.698 1447.32,396.713C1448.48,386.215 1451.15,339.763 1465.77,340.307C1471.98,340.539 1486.87,360.954 1497.37,380.526C1502.94,390.889 1515.8,391.783 1519.33,391.661C1530.86,391.264 1538.58,388.429 1541.6,377.51C1544.09,368.517 1549.17,361.234 1555.54,349.01C1557.54,345.172 1559.52,333.826 1572.75,334.357C1574.79,334.439 1574.55,340.829 1577.13,341.133C1580.65,341.547 1590.97,359.881 1591.49,364.216C1593.16,378.275 1595.35,384.667 1594.36,395.816C1593.42,406.47 1595.89,416.433 1594.81,425.84C1594.37,429.703 1589.07,435.258 1588.74,438.565C1586.88,457.067 1587.78,465.027 1586.07,469.785C1567.63,521.133 1597.47,535.857 1597.78,552.968C1598.09,570.053 1605.23,590.954 1603.57,609.761C1602.3,624.161 1596.42,635.291 1596.27,646.989C1596.08,661.459 1600.62,672.272 1601.64,677.542C1603.23,685.763 1608.14,694.652 1614.06,706.488C1625.42,729.208 1606.63,747.937 1604.72,750.113C1600.51,754.929 1592.29,760.871 1592.14,769.912C1592.08,773.559 1600.31,778.496 1604.74,778.773C1607.98,778.976 1642.87,784.829 1639.23,806.659C1638.73,809.668 1634.59,813.753 1633.98,814.263C1627.2,819.914 1593.83,810.947 1593.6,811.439C1592.47,813.799 1597.15,822.121 1602.01,828.921C1603.21,830.603 1613.18,847.613 1610.95,860.793C1607.57,880.711 1562.44,860.698 1561.59,859.627C1536.79,828.628 1562.78,792.21 1536.71,795.107C1535.3,795.263 1531.52,798.655 1525.61,801.862C1520.78,804.485 1514.64,807.366 1506.3,805.063C1505.37,808.751 1508.1,812.01 1505.72,817.657C1502.49,825.346 1500.8,823.993 1497.15,834.519C1495.12,840.359 1506.62,856.269 1483.83,868.929C1482.58,869.627 1471.37,868.41 1462.91,870.828C1456.11,872.771 1429.61,867.887 1445.84,844.695C1463.02,820.155 1466.89,809.336 1455.65,812.194C1452.39,813.025 1446.48,815.564 1441.62,817.319Z" />
        </g>
        <g transform="matrix(1,0,0,1.37284,-29.296,-194.947)">
            <path d="M129.406,817.046C126.924,818.397 128.023,817.511 125.321,818.862C118.789,822.128 91.025,807.311 114.88,783.456C122.723,775.614 121.423,768.567 119.59,761.389C117.019,751.327 111.306,742.206 109.887,740.787C104.358,735.258 95.164,739.937 89.915,729.439C87.95,725.51 75.053,715.703 71.775,692.553C70.095,680.69 69.348,665.105 77.205,645.463C77.973,643.543 86.92,634.753 93.079,625.347C97.645,618.373 104.633,619.524 104.461,613.999C104.239,606.869 110.85,602.868 112.963,601.8C109.597,576.148 118.764,574.071 108.979,556.948C101.939,544.628 92.924,457.717 105.802,437.112C115.936,420.897 94.034,400.831 132.129,345.419C134.18,342.436 135.999,331.574 135.859,320.387C135.769,313.215 134.126,306.244 133.685,300.032C133.312,294.786 135.35,292.457 134.209,289.481C131.15,281.502 136.827,269.969 130.943,258.273C129.626,255.655 127.707,270.411 121.295,270.001C125.054,248.71 118.775,247.327 119.441,240.305C104.305,222.331 102.039,203.385 111.059,189.34C125.386,167.029 119.393,190.752 135.208,178.325C142.878,172.299 150.708,173.477 157.667,173.497C163.972,173.516 169.526,171.958 174.236,174.806C179.769,178.152 177.978,187.045 188.19,185.188C197.312,183.53 208.862,183.202 213.562,183.171C220.364,183.126 223.869,179.168 236.986,181.553C257.746,185.327 272.705,178.68 290.699,193.752C297.314,199.292 308.308,202.748 314.248,218.471C319.863,233.331 324.417,227.101 332.539,241.078C333.983,243.564 337.687,248.125 341.056,251.075C343.371,253.102 345.513,253.274 346.71,255.885C347.57,257.762 345.942,260.732 345.974,262.825C346.045,267.475 338.963,273.962 336.849,280.962C330.467,302.101 309.198,282.31 308.706,251.911C308.654,248.687 308.762,244.217 305.273,243.945C299.133,243.468 287.532,251.124 285.149,266.614C284.142,273.156 286.923,281.175 285.312,284.774C282.629,290.771 282.052,291.639 283.74,306.836C284.086,309.952 279.915,322.258 279.508,325.131C276.935,343.285 274.075,359.461 283.74,369.931C285.955,372.33 299.4,408.595 301.798,444.576C304.177,480.291 310.979,533.941 296.904,571.473C293.761,579.854 297.157,579.435 303.316,585.815C304.875,598.626 309.696,594.254 315.969,594.624C320.215,594.873 333.214,614.706 339.222,635.707C344.163,652.982 342.782,671.562 341.651,676.245C329.452,726.785 303.912,722.794 298.266,756.674C297.761,759.703 296.952,766.731 301.496,772.111C306.611,778.166 317.454,782.722 322.939,788.418C333.313,799.191 338.645,806.179 322.117,821.054C317.14,825.533 301.281,817.379 304.152,826.418C308.95,841.522 327.391,852.114 337.899,880.517C345.072,899.907 335.515,889.573 334.126,890.128C332.653,890.717 327.095,891.334 318.017,904.047C303.759,906.286 305.85,899.202 291.752,903.173C284.928,896.447 277.586,904.445 273.579,901.695C267.89,897.791 267.227,888.534 266.887,879.73C266.782,877.034 266.317,874.481 264.057,870.956C259.575,863.965 264.14,842.988 261.876,846.878C256.992,855.271 255.866,841.478 255.6,838.819C254.834,831.159 257.374,802.623 248.014,780.946C237.95,797.761 235.088,797.968 210.574,798.493C184.881,799.044 192.43,784.087 172.439,788.306C177.939,824.14 178.284,824.823 177.976,824.309C177.841,824.085 177.109,822.865 175.252,822.493C170.742,821.591 174.937,833.638 174.258,833.153C179.479,866.801 177.892,874.779 177.068,875.603C159.86,892.811 152.908,889.2 149.787,889.894C146.807,890.556 135.344,893.807 122.566,885.385C119.002,885.656 119.583,879.779 117.044,879.616C88.898,877.807 119.022,852.046 124.126,834.182C124.643,832.371 130.412,819.059 129.406,817.046Z" />
        </g>
        <g transform="matrix(1,0,0,1.37284,0,-194.83)">
            <path d="M621.096,852.152C588.928,871.453 584.948,840.082 601.677,806.624C627.591,754.796 607.995,748.886 632.48,691.752C652.878,644.157 623.273,601.515 641.465,528.75C647.842,503.241 631.967,505.366 639.881,478.983C647.586,453.302 654.228,451.666 652.374,433.13C651.008,419.465 658.529,414.133 644.673,410.669C638.025,409.007 629.927,402.882 630.873,382.577C631.437,370.474 639.958,355.778 640.823,327.242C641.492,305.158 665.8,283.89 669.06,281.037C670.79,279.523 711.481,257.559 724.931,258.244C745.815,259.309 759.288,265.635 773.268,277.549C779.788,283.106 789.654,285.28 794.893,293.967C795.668,288.699 799.178,287.203 801.57,287.478C823.878,290.044 811.823,346.22 816.357,370.234C820.78,393.66 825.259,394.151 811.56,416.377C839.994,460.529 824.337,448.992 840.213,498.885C849.997,529.636 842.328,547.352 850.031,578.164C857.19,606.801 812.828,690.544 844.24,706.25C875.21,721.735 845.376,799.147 914.847,813.042C935.63,817.198 958.855,843.677 923.19,849.621C916.564,850.725 916.894,854.144 893.67,848.338C888.183,846.966 884.838,861.486 878.268,861.814C852.353,863.11 851.395,854.487 851.315,856.68C851.193,859.993 855.153,871.52 854.156,879.692C853.492,885.136 847.748,887.901 847.667,890.108C844.419,893.416 826.102,898.943 794.2,882.992C781.518,876.651 798.854,847.359 769.124,852.314C737.645,857.561 749.857,846.154 714.473,848.353C711.746,848.523 705.479,844.969 700.424,850.025C688.624,861.824 702.03,880.894 683.368,882.148C667.084,883.242 650.328,884.548 644.042,880.45C638.058,876.55 642.522,871.038 642.786,864.986C643.245,854.447 642.579,841.818 633.729,849.408C637.105,850.234 621.096,852.152 621.096,852.152Z"/>
        </g>
        <g transform="matrix(1,0,0,1.37284,-6.49951,-194.8)">
            <path d="M343.605,852.721C344.017,864.965 319.294,837.966 344.576,821.111C357.898,812.23 352.917,797.413 352.917,748.818C352.917,709.967 335.363,708.388 352.917,673.28C356.28,666.555 353.421,617.035 344.576,603.767C335.769,590.556 335.765,544.93 341.795,526.839C347.655,509.259 334.8,492.98 349.461,462.191C361.352,437.221 352.322,420.97 354.308,375.3C355.249,353.641 350.267,355.119 355.507,334.16C357.224,327.294 351.992,318.306 348.965,306.747C341.905,279.787 337.71,245.761 339.409,222.483C339.973,214.758 354.304,177.56 369.784,210.963C379.029,230.912 399.995,253.127 403.713,256.043C413.924,264.052 430.906,256.738 450.795,257.661C454.132,251.814 465.806,244.973 473.05,233.299C483.639,216.235 501.885,201.252 505.423,201.849C509.777,202.584 521.018,246.815 508.164,283.542C489.533,336.772 491.322,340.946 493.334,345.641C515.489,397.336 480.998,407.816 501.75,436.101C524.856,467.596 535.261,526.618 544.341,576.405C550.515,610.256 553.569,639.477 569.335,654.28C583.243,667.337 587.592,670.863 601.311,732.598C616.34,800.225 580.752,799.287 589.726,826.209C605.389,873.198 584.114,869.114 580.921,867.917C562.384,860.966 554.182,869.059 540.569,836.071C526.687,855.552 563.505,879.222 527.164,888.307C494.762,896.408 479.351,872.328 483.602,859.575C485.721,853.219 483.981,834.31 470.163,838.258C469.68,838.396 466.526,844.781 459.041,841.038C455.122,839.079 444.527,833.781 404.509,835.978C394.995,866.575 393.364,869.43 391.845,872.088C389.801,875.664 354.673,892.331 340.868,871.624C334.235,861.674 348.955,863.42 343.605,852.721Z" />
        </g>
        <g transform="matrix(1,0,0,1.37284,0,-194.83)">
            <path d="M895.686,803.109C881.518,799.061 903.496,787.852 903.672,787.501C912.741,769.363 896.137,760.266 893.44,748.843C891.865,748.121 885.574,745.235 881.893,730.512C878.938,718.692 882.47,718.016 877.537,706.919C868.15,685.798 883.437,646.436 904.035,636.137C908.159,634.075 910.85,637.389 914.924,629.24C924.18,610.729 912.871,607.938 922.184,589.312C927.216,579.248 908.003,573.761 934.162,512.723C956.133,461.457 956.742,456.586 957.393,451.379C958.027,446.308 975.728,420.683 959.983,411.552C959.752,409.355 958.716,399.519 961.043,383.955C948.375,372.557 961.276,365.373 961.749,355.915C962.639,338.117 965.001,338.696 974.816,323.972C979.488,316.964 977.777,316.282 983.165,309.816C990.055,301.548 995.701,309.04 1002.02,308.408C1013.39,307.271 1018.37,309.723 1026,310.613C1027.91,310.836 1034.13,308.648 1041.01,308.227C1045.18,307.971 1057.52,307.833 1063.73,311.7C1078.31,297.109 1084.15,287.213 1082.26,298.564C1080.91,306.67 1082.61,311.544 1084.43,315.809C1085.76,318.934 1083.15,321.561 1083.46,325.064C1083.71,328.038 1088.5,335.661 1093.1,350.215C1095.22,356.905 1098.04,355.338 1098.88,365.637C1100.21,381.972 1100.54,383.276 1098.4,399.712C1097.15,409.379 1091.44,419.982 1088.22,431.194C1083.94,446.133 1085.67,456.644 1095.08,470.759C1108.19,490.419 1117.15,514.205 1120.87,534.836C1123.06,546.991 1121.96,556.824 1122.76,567.374C1124.67,592.443 1125.18,610.825 1125.07,614.709C1124.89,620.853 1121.01,620.998 1122.17,625.182C1125.46,637.033 1130.7,654.609 1132.51,674.697C1134.02,691.453 1133.16,708.9 1134.16,726.815C1135.87,757.254 1142.93,785.471 1149.7,802.641C1155.75,817.982 1142.81,813.581 1182.08,846.304C1199.77,861.046 1199.29,869.001 1197.69,868.318C1197.24,868.125 1193.13,864.454 1188.15,861.557C1188.56,862.197 1195.82,875.397 1192.62,877.635C1191.59,878.351 1188.95,875.333 1185.38,873.82C1183.57,876.85 1181.55,884.148 1174.86,873.876C1173.76,874.207 1170.75,876.696 1166.47,877.205C1160.02,877.973 1150.51,876.312 1138.88,872.438C1131.72,870.051 1132.32,845.959 1124.24,839.496L1122.91,846.952C1117.72,838.174 1119.4,830.614 1119.13,822.85C1118.92,816.9 1116.96,810.781 1113.48,804.198C1104.47,787.194 1113.96,781.097 1110.21,766.085C1102.89,736.83 1099.37,729.264 1097.96,726.242C1084.47,747.764 1078.72,751.792 1076.45,753.38C1075.41,754.111 1077.13,755.739 1065.56,764.996C1063.5,766.644 1058.11,780.118 1071.73,783.145C1093.31,787.941 1093.37,792.343 1092.79,814.361C1092.46,826.674 1073.69,820.918 1062.66,819.08C1059.12,818.49 1049.46,800.036 1036.99,794.617C1035.47,780.92 1029.27,788.586 1016.56,793.671C1008.56,796.87 1010.55,799.159 1013,807.439C1007.99,814.876 999.461,814.01 994.312,814.328C979.707,815.228 975.031,809.992 972.676,810.41C972.117,823.524 968.844,822.841 967.92,835.777C966.831,851.021 973.64,849.743 974.529,865.157C969.462,861.216 969.795,861.065 966.468,855.741C975.663,883.328 964.235,890.185 961.749,891.676C950.809,898.241 951.057,898.592 938.155,900.025C902.679,903.967 901.006,876.093 917.465,872.801C921.645,871.965 949.58,830.85 935.261,813.907C936.114,805.368 936.109,805.661 937.429,797.301C939.664,783.147 936.099,783.63 935.475,781.023C930.21,794.942 939.182,797.56 929.807,809.28C912.085,831.431 893.752,802.996 893.508,802.02" />
        </g>
        <g transform="matrix(1,0,0,1.37284,0,-194.83)">
            <path d="M1177.05,804.466C1163.88,808.858 1157.82,812.271 1157,798.266C1156.11,783.177 1181.31,785.342 1188.36,766.537C1195.66,747.065 1189.05,747.508 1186.17,743.197C1184.7,740.984 1173.36,712.656 1177.42,704.539C1179.29,700.795 1184.09,702.426 1186.17,689.951C1186.98,685.108 1196.19,651.879 1190.18,629.046C1173.49,565.611 1190.39,557.693 1207.06,530.411C1190.95,543.339 1187.78,550.255 1173.85,535.152C1167.7,528.487 1170.02,516.183 1177.05,510.155C1189.83,499.207 1198.6,481.011 1199.97,478.176C1182.92,452.453 1187.03,450.739 1183.62,420.075C1180.91,395.738 1192.15,398.122 1188.23,387.655C1188.09,387.299 1186.8,385.769 1186.12,383.091C1185.95,382.401 1185.76,379.264 1184.94,376.95C1184.15,374.709 1182.71,373.278 1182.71,373.278C1176.29,383.766 1164.3,385.065 1161.69,382.54C1158.89,379.835 1160.95,371.569 1161.41,370.876C1175.24,350.129 1184.82,344.632 1194.19,341.744C1200.77,339.716 1206.98,337.442 1215.68,338.685C1224.55,339.952 1233.55,340.258 1250.27,340.059C1262.16,339.918 1275.22,339.159 1286.42,338.876C1291.55,338.747 1296.15,339.956 1300.31,339.172C1305.65,338.167 1309.45,334.681 1312.53,332.832C1320.19,328.232 1343.29,330.815 1346.42,330.641C1351.97,332.053 1359.21,335.821 1361.22,337.673C1369.39,345.219 1376.22,351.702 1380.34,359.507C1382.02,362.695 1378.79,367.335 1377,367.209C1374.86,367.058 1372.02,364.489 1367.37,362.796C1359.76,373.828 1360.73,374.694 1349.56,382.146C1340.98,387.862 1339.94,423.029 1341.17,427.004C1344,436.196 1347.29,441.192 1348.84,445.931C1352.47,457.003 1351.94,460.376 1352.11,467.485C1352.49,483.681 1352.57,483.851 1361.59,497.391C1373.16,514.741 1371.88,513.852 1389.24,536.17C1415.79,570.303 1401.15,584.077 1406.45,626.493C1407.9,638.109 1401.27,641.715 1398.51,646.806C1392.98,657.026 1388.3,663.804 1392.58,687.38C1394.65,698.761 1393.68,697.73 1400.66,707.026C1408.86,717.961 1406.47,736.781 1403.43,746.277C1400.65,754.947 1391.18,763.15 1389.02,772.874C1387.41,780.132 1391.66,788.378 1396.24,797.537C1397.83,800.715 1409.16,803.769 1414.1,811.749C1421,822.893 1420.37,838.728 1407.13,834.481C1402.28,832.923 1394.93,829.864 1393.26,837.105C1391.88,843.103 1397.52,853.261 1395.54,858.735C1392.57,866.962 1383.99,867.858 1382.74,867.923C1373.91,868.388 1363.92,877.545 1349.92,863.547C1346.72,860.346 1347.02,847.698 1346.97,835.935C1346.94,828.091 1345.49,820.73 1347.37,816.501C1346.33,816 1349.02,808.396 1351.77,796.44C1353.32,789.73 1351.25,781.1 1354.2,772.252C1356.76,764.575 1348.03,765.307 1332.27,768.515C1325.01,769.993 1318.25,773.478 1306.93,771.488C1302.74,770.751 1308.09,779.65 1296.02,783.075C1292.97,783.942 1290.26,781.898 1285.25,782.635C1281.75,789.27 1275.08,785.844 1271.74,779.53C1269.41,775.137 1269.68,768.768 1269.66,765.84C1257.78,764.179 1256.93,767.274 1246.71,760.702C1236.98,754.445 1224.68,753.514 1224.68,753.514C1222.26,759.054 1223.58,766.342 1222.85,772.333C1221.86,780.539 1219.32,787.394 1219.05,793.893C1218.44,808.478 1219.62,822.553 1206.96,838.383C1203.46,842.756 1203.51,857.032 1178.51,850.782C1164.46,847.269 1156.53,846.462 1157.73,833.277C1158.18,828.295 1187.1,806.522 1173.04,803.007" />
        </g>
    </g>
</svg>
