<?xml version="1.0" encoding="UTF-8" standalone="no"?>
<!DOCTYPE svg PUBLIC "-//W3C//DTD SVG 1.1//EN" "http://www.w3.org/Graphics/SVG/1.1/DTD/svg11.dtd">
<svg width="100%" height="100%" viewBox="0 0 274 695" version="1.1" xmlns="http://www.w3.org/2000/svg" xmlns:xlink="http://www.w3.org/1999/xlink" xml:space="preserve" xmlns:serif="http://www.serif.com/" style="fill-rule:evenodd;clip-rule:evenodd;stroke-linecap:round;stroke-linejoin:round;stroke-miterlimit:1.5;">
    <g transform="matrix(1,0,0,1,-326,-196)">
        <g transform="matrix(1,0,0,1,-6.49951,0.0219208)">
            <path d="M343.605,852.721C344.017,864.965 319.294,837.966 344.576,821.111C357.898,812.23 352.917,797.413 352.917,748.818C352.917,709.967 335.363,708.388 352.917,673.28C356.28,666.555 353.421,617.035 344.576,603.767C335.769,590.556 335.765,544.93 341.795,526.839C347.655,509.259 334.8,492.98 349.461,462.191C361.352,437.221 352.322,420.97 354.308,375.3C355.249,353.641 350.267,355.119 355.507,334.16C357.224,327.294 351.992,318.306 348.965,306.747C341.905,279.787 337.71,245.761 339.409,222.483C339.973,214.758 354.304,177.56 369.784,210.963C379.029,230.912 399.995,253.127 403.713,256.043C413.924,264.052 430.906,256.738 450.795,257.661C454.132,251.814 465.806,244.973 473.05,233.299C483.639,216.235 501.885,201.252 505.423,201.849C509.777,202.584 521.018,246.815 508.164,283.542C489.533,336.772 491.322,340.946 493.334,345.641C515.489,397.336 480.998,407.816 501.75,436.101C524.856,467.596 535.261,526.618 544.341,576.405C550.515,610.256 553.569,639.477 569.335,654.28C583.243,667.337 587.592,670.863 601.311,732.598C616.34,800.225 580.752,799.287 589.726,826.209C605.389,873.198 584.114,869.114 580.921,867.917C562.384,860.966 554.182,869.059 540.569,836.071C526.687,855.552 563.505,879.222 527.164,888.307C494.762,896.408 479.351,872.328 483.602,859.575C485.721,853.219 483.981,834.31 470.163,838.258C469.68,838.396 466.526,844.781 459.041,841.038C455.122,839.079 444.527,833.781 404.509,835.978C394.995,866.575 393.364,869.43 391.845,872.088C389.801,875.664 354.673,892.331 340.868,871.624C334.235,861.674 348.955,863.42 343.605,852.721Z" style="stroke:black;stroke-width:1px;"/>
        </g>
    </g>
</svg>
