<?xml version="1.0" encoding="UTF-8" standalone="no"?>
<!DOCTYPE svg PUBLIC "-//W3C//DTD SVG 1.1//EN" "http://www.w3.org/Graphics/SVG/1.1/DTD/svg11.dtd">
<svg width="100%" height="100%" viewBox="0 0 247 478" version="1.1" xmlns="http://www.w3.org/2000/svg" xmlns:xlink="http://www.w3.org/1999/xlink" xml:space="preserve" xmlns:serif="http://www.serif.com/" style="fill-rule:evenodd;clip-rule:evenodd;stroke-linecap:round;stroke-linejoin:round;stroke-miterlimit:1.5;">
    <g transform="matrix(1,0,0,1,-1610,-386)">
        <path d="M1654.59,860.555C1653.57,860.072 1653.01,863.538 1640.6,858.221C1618.93,848.936 1648.83,832.408 1641.88,790.762C1641.13,786.232 1617.98,750.621 1628.39,724.587C1632.89,713.353 1621.72,709.424 1628.25,676.778C1633.95,648.274 1628.57,649.072 1627.31,614.926C1627.18,611.363 1634.71,571.194 1632.47,556.518C1631.55,550.486 1635.54,541.256 1635.74,536.115C1635.94,530.998 1647.06,522.061 1647.82,513.569C1648.67,504.038 1649.47,469.426 1646.7,455.081C1645.43,448.532 1644.65,446.419 1640.61,452.468C1639.58,454.022 1637.36,461.653 1629.69,465.135C1625.49,467.045 1621.48,455.674 1617.13,441.392C1613.25,428.681 1597.14,415.764 1636.96,399.163C1650.75,393.417 1657.18,391.972 1678.56,389.597C1698.48,387.384 1696.87,387.656 1717.7,386.966C1724.29,386.748 1749.29,390.1 1762.92,395.011C1778.5,400.626 1802.13,406.546 1820.05,420.271C1825.05,424.1 1839.38,422.259 1825.85,447.826C1825.5,448.487 1818.72,464.179 1814.13,465.975C1809.54,467.771 1801.1,465.516 1798.33,458.602C1797.26,455.925 1784.28,460.076 1783.55,466.954C1781.75,483.877 1782.46,483.787 1775.52,499.399C1767.32,517.861 1780.81,517.4 1782.91,523.171C1787.55,535.947 1788.59,535.516 1790.3,549.191C1793.84,577.538 1791.92,577.99 1802.5,604.444C1804.47,609.349 1816.77,636.546 1820.45,664.448C1823.91,690.66 1817.9,696.558 1837.52,724.587C1853.24,747.039 1854.06,770.477 1854.22,774.7C1854.9,792.302 1857.24,798.717 1855.9,815.486C1855.26,823.428 1849.65,834.604 1846.81,832.074C1843.76,829.35 1843.31,825.168 1839.88,820.753C1836.62,829.279 1838.17,830.486 1839.66,839.388C1839.92,840.982 1839.91,846.748 1828.16,850.406C1825.03,851.379 1820.41,850.313 1813.91,849.646C1811.73,849.423 1786.86,853.667 1780.02,844.087C1772.34,833.341 1771.07,853.696 1764.81,858.051C1756.7,863.683 1711.68,866.886 1706.44,855.712C1705.05,852.746 1711.13,847.896 1708.8,843.896C1707.9,842.357 1703.41,843.213 1697.72,846.059C1694.94,847.449 1691.77,845.701 1691.19,846.282C1688.36,849.11 1690.86,848.657 1691.13,856.075C1686.48,862.862 1662.1,861.372 1654.59,860.555Z" style="stroke:black;stroke-width:1px;"/>
    </g>
</svg>
